<svg xmlns="http://www.w3.org/2000/svg" version="1.1" xmlns:xlink="http://www.w3.org/1999/xlink" width="1500" height="733" viewBox="0 0 1500 733"><svg xml:space="preserve" width="1500" height="733" data-version="2" data-id="lg_k56iPKUH80UisoVAJN" viewBox="0 0 767 733" x="0" y="0"><rect width="100%" height="100%" fill="transparent"></rect><path d="M318.764 285.813c-3.335.493-7.768-1.261-9.867-3.905l-15.528-19.598c-2.091-2.635-2.79-7.361-1.547-10.49l9.211-23.26c1.245-3.128 4.986-6.092 8.313-6.585l24.721-3.646c3.336-.493 7.768 1.261 9.86 3.905l15.527 19.598c2.091 2.635 2.79 7.362 1.555 10.49l-9.21 23.26c-1.245 3.129-4.978 6.093-8.313 6.585zm60.018-76.41c-3.335.492-7.768-1.262-9.859-3.906l-14.102-17.791c-2.09-2.636-2.79-7.362-1.555-10.49l8.313-21.084c1.235-3.128 4.968-6.1 8.303-6.593l22.458-3.309c3.335-.493 7.742 1.262 9.859 3.906l14.059 17.782c2.082 2.644 2.782 7.371 1.555 10.499l-8.304 21.075c-1.244 3.128-4.977 6.1-8.312 6.593zm31.366 93.182c-3.335.493-7.759-1.261-9.859-3.905l-17.705-22.363c-2.082-2.644-2.782-7.362-1.572-10.498l10.481-26.476c1.253-3.136 4.96-6.1 8.321-6.601l28.238-4.208c3.336-.502 7.76 1.261 9.86 3.897l17.704 22.362c2.074 2.644 2.774 7.37 1.556 10.499l-10.482 26.535c-1.235 3.137-4.968 6.1-8.312 6.593zm59.553-79.296c-3.361.492-7.768-1.262-9.894-3.897l-13.298-16.78c-2.074-2.636-2.765-7.363-1.555-10.49l7.828-19.9c1.262-3.137 4.977-6.1 8.321-6.593l21.196-3.137c3.361-.493 7.768 1.262 9.894 3.906l13.324 16.763c2.091 2.635 2.782 7.362 1.573 10.49l-7.898 19.908c-1.262 3.128-4.994 6.1-8.321 6.593zm64.71-62.128c-3.335.493-7.759-1.261-9.867-3.905l-10.265-12.91c-2.091-2.644-2.783-7.362-1.547-10.49l6.092-15.32c1.244-3.128 4.986-6.092 8.32-6.584l16.211-2.402c3.344-.493 7.76 1.261 9.876 3.897l10.266 12.926c2.1 2.636 2.8 7.354 1.564 10.482l-6.057 15.303c-1.245 3.128-4.978 6.091-8.304 6.584zm63.64-47.671c-3.344.493-7.76-1.27-9.876-3.906l-5.012-6.342c-2.09-2.635-2.79-7.362-1.555-10.49l2.972-7.543c1.245-3.137 4.977-6.1 8.304-6.585l8.019-1.175c3.335-.484 7.76 1.262 9.876 3.915l5.03 6.325c2.082 2.635 2.782 7.362 1.555 10.49l-2.99 7.552c-1.244 3.136-4.977 6.1-8.304 6.584zm20.644 78.38c-3.335.502-7.742-1.252-9.876-3.888l-5.815-7.318c-2.1-2.636-2.8-7.354-1.564-10.482l3.421-8.666c1.262-3.128 4.977-6.092 8.313-6.576l9.228-1.357c3.353-.484 7.777 1.27 9.894 3.906l5.824 7.301c2.09 2.636 2.79 7.354 1.572 10.482l-3.421 8.632c-1.262 3.128-4.969 6.1-8.313 6.593zm55.257-23.442c-3.335.484-7.75-1.279-9.868-3.923l-1.952-2.462c-2.066-2.644-2.757-7.37-1.547-10.49l1.175-2.92c1.262-3.129 4.986-6.084 8.321-6.568l3.059-.45c3.344-.483 7.75 1.28 9.876 3.915l1.944 2.428c2.074 2.636 2.774 7.362 1.556 10.49l-1.167 2.955c-1.261 3.137-4.977 6.092-8.32 6.576zm-117.047 75.78c-3.344.493-7.768-1.262-9.877-3.906l-10.982-13.868c-2.091-2.636-2.791-7.362-1.555-10.49l6.515-16.443c1.261-3.128 4.994-6.092 8.32-6.585l17.473-2.575c3.335-.492 7.759 1.262 9.867 3.906l10.983 13.868c2.09 2.636 2.79 7.362 1.564 10.49l-6.498 16.435c-1.253 3.137-4.977 6.1-8.304 6.593zm70.111 22.336c-3.335.493-7.742-1.261-9.868-3.897l-7.353-9.237c-2.082-2.644-2.774-7.361-1.538-10.49l4.372-11c1.245-3.127 4.977-6.1 8.321-6.592l11.64-1.72c3.335-.492 7.768 1.262 9.867 3.897l7.38 9.28c2.082 2.636 2.773 7.363 1.546 10.49l-4.337 10.957c-1.262 3.128-4.986 6.1-8.321 6.593zm63.544-13.496c-3.336.5-7.768-1.262-9.868-3.897l-5.815-7.354c-2.091-2.644-2.783-7.37-1.564-10.498l3.43-8.736c1.244-3.128 4.977-6.092 8.304-6.576l9.315-1.356c3.344-.484 7.75 1.27 9.876 3.914l5.807 7.301c2.09 2.636 2.79 7.354 1.555 10.482l-3.439 8.744c-1.262 3.128-4.986 6.1-8.338 6.593zM513.364 68.696c-3.344.493-7.768-1.261-9.877-3.897l-4.476-5.608c-2.09-2.635-2.79-7.362-1.572-10.49l2.653-6.636c1.261-3.128 4.977-6.1 8.312-6.584l7.016-1.046c3.362-.492 7.768 1.262 9.903 3.897l4.484 5.6c2.074 2.635 2.774 7.353 1.556 10.48l-2.636 6.646c-1.261 3.128-4.994 6.1-8.32 6.593zm-88.483-18.362c-3.335.493-7.76-1.261-9.86-3.905l-7.31-9.229c-2.09-2.644-2.799-7.37-1.59-10.498l4.295-10.879c1.262-3.128 4.952-6.1 8.304-6.593l11.7-1.728c3.344-.493 7.742 1.27 9.859 3.914l7.258 9.211c2.083 2.644 2.765 7.37 1.53 10.499l-4.295 10.887c-1.261 3.128-4.994 6.1-8.338 6.593zm-95.921 2.264c-3.336.493-7.769-1.261-9.86-3.905L310.943 38.4c-2.09-2.644-2.782-7.362-1.546-10.49l4.847-12.2c1.245-3.128 4.986-6.1 8.313-6.593l12.995-1.936c3.327-.5 7.76 1.262 9.86 3.897l8.148 10.3c2.091 2.644 2.79 7.37 1.555 10.499l-4.813 12.192c-1.235 3.128-4.968 6.1-8.303 6.593zm-77.552 2.377c-3.335.492-7.768-1.262-9.85-3.906l-4.312-5.47c-2.082-2.644-2.79-7.37-1.555-10.507l2.549-6.515c1.235-3.137 4.96-6.1 8.295-6.584l6.939-1.011c3.335-.484 7.776 1.27 9.876 3.905l4.38 5.504c2.1 2.636 2.792 7.345 1.548 10.473l-2.593 6.48c-1.253 3.129-4.994 6.092-8.33 6.585zm106.18 68.478c-3.336.492-7.769-1.262-9.86-3.906l-9.677-12.218c-2.091-2.644-2.791-7.38-1.556-10.498l5.703-14.465c1.236-3.128 4.969-6.092 8.304-6.576l15.433-2.255c3.335-.484 7.768 1.279 9.859 3.923l9.634 12.157c2.091 2.645 2.791 7.362 1.581 10.499l-5.711 14.456c-1.236 3.137-4.977 6.1-8.304 6.593zm88.774 14.853c-3.344.493-7.768-1.261-9.876-3.905L426.22 121.5c-2.09-2.635-2.79-7.362-1.59-10.49l6.04-15.32c1.236-3.128 4.969-6.1 8.304-6.584l16.34-2.411c3.361-.493 7.777 1.27 9.894 3.906l10.265 12.918c2.091 2.635 2.782 7.361 1.555 10.49l-6.066 15.302c-1.261 3.128-4.985 6.1-8.32 6.585zM293.36 195.448c-3.335.501-7.768-1.262-9.859-3.906l-11-13.911c-2.09-2.644-2.782-7.37-1.555-10.499l6.507-16.504c1.235-3.128 4.968-6.1 8.304-6.584l17.592-2.592c3.336-.493 7.768 1.27 9.86 3.914l10.982 13.86c2.09 2.644 2.79 7.37 1.555 10.498l-6.498 16.504c-1.235 3.128-4.968 6.1-8.295 6.602zm-21.326-76.825c-3.327.5-7.768-1.262-9.86-3.897l-6.895-8.702c-2.09-2.635-2.79-7.362-1.555-10.49l4.113-10.386c1.244-3.136 4.977-6.1 8.304-6.601l11.017-1.642c3.327-.501 7.76 1.261 9.85 3.905l6.913 8.754c2.091 2.644 2.782 7.37 1.538 10.498l-4.104 10.326c-1.245 3.128-4.986 6.1-8.313 6.593zm-82.069-5.539c-3.336.492-7.768-1.262-9.86-3.906l-5.772-7.284c-2.09-2.644-2.79-7.362-1.555-10.499l3.43-8.684c1.236-3.136 4.978-6.091 8.304-6.575l9.203-1.348c3.335-.484 7.768 1.279 9.859 3.923l5.772 7.293c2.091 2.644 2.782 7.362 1.547 10.49l-3.422 8.632c-1.244 3.128-4.986 6.1-8.313 6.593zm-56.917.233c-3.336.493-7.777-1.261-9.877-3.897l-3.128-3.923c-2.1-2.635-2.8-7.344-1.564-10.472l1.85-4.666c1.235-3.128 4.977-6.1 8.303-6.593l5.003-.743c3.336-.502 7.76 1.261 9.842 3.914l3.085 3.923c2.082 2.652 2.774 7.379 1.53 10.507l-1.833 4.649c-1.244 3.136-4.977 6.1-8.312 6.584zm71.312 72.721c-3.335.493-7.768-1.261-9.868-3.897l-7.336-9.237c-2.1-2.635-2.8-7.353-1.555-10.49l4.33-10.948c1.243-3.136 4.976-6.091 8.312-6.575l11.69-1.703c3.336-.483 7.769 1.28 9.86 3.923l7.24 9.16c2.092 2.644 2.792 7.362 1.547 10.49l-4.329 10.956c-1.244 3.128-4.977 6.1-8.312 6.593zm-74.882-5.262c-3.335.484-7.777-1.27-9.876-3.906l-6.256-7.863c-2.1-2.635-2.791-7.353-1.547-10.481l3.741-9.384c1.245-3.128 4.995-6.092 8.322-6.576l9.885-1.451c3.335-.493 7.776 1.261 9.876 3.905l6.273 7.88c2.1 2.636 2.8 7.354 1.556 10.482l-3.716 9.358c-1.244 3.128-4.986 6.092-8.312 6.576zm98.574 89.907c-3.335.493-7.768-1.27-9.859-3.905l-12.797-16.15c-2.091-2.635-2.782-7.362-1.547-10.49l7.613-19.226c1.244-3.128 4.986-6.1 8.312-6.593l20.419-3.024c3.335-.492 7.768 1.262 9.859 3.906l12.805 16.193c2.091 2.644 2.783 7.362 1.547 10.498L256.8 261.11c-1.244 3.137-4.977 6.1-8.312 6.585zm275.27 44.604c-3.344.493-7.76-1.261-9.859-3.905l-15.406-19.485c-2.083-2.644-2.783-7.371-1.556-10.499l9.116-23.131c1.236-3.128 4.96-6.1 8.304-6.585l24.618-3.612c3.335-.492 7.768 1.27 9.867 3.915l15.407 19.493c2.082 2.644 2.782 7.362 1.555 10.499l-9.116 23.07c-1.235 3.138-4.96 6.101-8.303 6.594zm82.564 18.656c-3.335.492-7.76-1.27-9.868-3.906l-11.051-13.92c-2.083-2.636-2.791-7.362-1.547-10.49l6.532-16.46c1.253-3.129 4.986-6.101 8.322-6.594l17.566-2.61c3.336-.5 7.76 1.262 9.86 3.898l11.016 13.92c2.074 2.644 2.783 7.362 1.556 10.499l-6.515 16.503c-1.236 3.128-4.96 6.1-8.304 6.585zm80.601 9.807c-3.335.493-7.759-1.262-9.876-3.906l-10.3-12.978c-2.082-2.636-2.79-7.353-1.547-10.481l6.144-15.485c1.253-3.128 4.977-6.091 8.321-6.584l16.435-2.41c3.335-.493 7.742 1.27 9.868 3.914l10.3 13.021c2.09 2.644 2.782 7.362 1.555 10.49l-6.144 15.415c-1.253 3.128-4.985 6.092-8.32 6.585zm69.023-14.914c-3.345.501-7.76-1.262-9.86-3.906l-2.886-3.655c-2.091-2.644-2.782-7.37-1.573-10.498l1.729-4.373c1.261-3.127 4.95-6.091 8.312-6.575l4.588-.674c3.344-.484 7.76 1.27 9.885 3.914l2.947 3.681c2.082 2.636 2.774 7.353 1.555 10.481l-1.702 4.32c-1.253 3.129-4.986 6.101-8.321 6.594zM27.127 270.804c-3.327.502-7.76-1.253-9.85-3.897l-.364-.458c-2.09-2.644-2.782-7.362-1.546-10.498l.224-.562c1.236-3.136 4.977-6.1 8.304-6.584l.553-.078c3.335-.492 7.777 1.262 9.877 3.897l.38.484c2.1 2.635 2.8 7.353 1.564 10.481l-.208.527c-1.244 3.128-4.985 6.1-8.312 6.602zm43.17-88.499c-3.328.501-7.76-1.261-9.851-3.905l-1.996-2.523c-2.083-2.645-2.783-7.371-1.538-10.499l1.175-2.964c1.244-3.128 4.977-6.1 8.312-6.593l3.189-.466c3.335-.493 7.76 1.261 9.85 3.905l1.988 2.523c2.082 2.645 2.773 7.362 1.52 10.49l-1.192 2.964c-1.253 3.128-4.994 6.092-8.321 6.593zm73.863 79.072c-3.336.493-7.768-1.261-9.868-3.905l-8.814-11.104c-2.1-2.644-2.79-7.362-1.555-10.49l5.228-13.211c1.244-3.128 4.985-6.1 8.312-6.585l13.964-2.065c3.335-.492 7.768 1.262 9.867 3.897l8.814 11.103c2.1 2.636 2.8 7.354 1.555 10.482l-5.227 13.212c-1.245 3.136-4.977 6.1-8.313 6.592zm-69.845-6.342c-3.335.492-7.768-1.27-9.859-3.914l-5.763-7.293c-2.091-2.644-2.783-7.362-1.547-10.49l3.422-8.632c1.244-3.128 4.985-6.1 8.312-6.593l9.194-1.365c3.327-.502 7.76 1.261 9.86 3.897l5.771 7.292c2.091 2.644 2.791 7.362 1.555 10.499l-3.43 8.675c-1.236 3.137-4.977 6.1-8.304 6.585zm100.683 84.179c-3.336.492-7.768-1.27-9.85-3.915l-10.214-12.952c-2.083-2.644-2.783-7.37-1.547-10.499l6.049-15.303c1.235-3.136 4.977-6.1 8.303-6.593l16.34-2.41c3.336-.493 7.768 1.261 9.86 3.905l10.204 12.901c2.091 2.644 2.791 7.37 1.556 10.499l-6.066 15.363c-1.236 3.128-4.969 6.1-8.304 6.584zm83.67 13.998c-3.336.492-7.768-1.27-9.868-3.906l-14.093-17.722c-2.1-2.636-2.791-7.354-1.547-10.482l8.356-21.048c1.244-3.128 4.985-6.1 8.32-6.593l22.337-3.31c3.336-.492 7.768 1.262 9.86 3.897l14.05 17.74c2.09 2.635 2.79 7.362 1.555 10.49l-8.313 21.083c-1.235 3.128-4.968 6.092-8.304 6.584zm90.58 16.97c-3.335.493-7.768-1.279-9.868-3.914l-15.164-19.079c-2.1-2.644-2.8-7.362-1.556-10.49l8.987-22.682c1.235-3.128 4.977-6.1 8.312-6.593l24.16-3.586c3.335-.492 7.768 1.262 9.868 3.897l15.121 19.08c2.091 2.635 2.8 7.361 1.59 10.498l-8.926 22.734c-1.244 3.136-4.977 6.1-8.312 6.61zm95.145 16.876c-3.335.492-7.76-1.262-9.868-3.897l-16.33-20.53c-2.092-2.636-2.783-7.363-1.574-10.49l9.67-24.446c1.261-3.136 4.977-6.1 8.312-6.584l26-3.828c3.327-.492 7.742 1.27 9.86 3.915l16.27 20.539c2.074 2.644 2.782 7.362 1.547 10.49l-9.678 24.462c-1.244 3.102-4.977 6.074-8.313 6.584zm94.322 16.331c-3.335.492-7.76-1.27-9.868-3.914l-13.246-16.712c-2.091-2.661-2.791-7.388-1.564-10.516l7.828-19.796c1.253-3.136 4.96-6.1 8.321-6.593l21.084-3.136c3.353-.493 7.75 1.261 9.885 3.897l13.246 16.72c2.074 2.652 2.774 7.379 1.556 10.498l-7.837 19.866c-1.245 3.136-4.978 6.091-8.313 6.592zm87.065 12.408c-3.335.493-7.759-1.262-9.876-3.906l-10.982-13.86c-2.074-2.635-2.783-7.37-1.573-10.498l6.507-16.426c1.261-3.128 4.968-6.1 8.312-6.61l17.532-2.558c3.344-.493 7.751 1.261 9.877 3.914l11.017 13.86c2.09 2.653 2.782 7.37 1.555 10.499l-6.601 16.434c-1.262 3.12-4.978 6.092-8.322 6.593zm81.11-4.83c-3.335.501-7.741-1.262-9.858-3.897l-5.556-7.017c-2.091-2.644-2.783-7.37-1.582-10.498l3.301-8.27c1.236-3.119 4.943-6.1 8.304-6.6l8.83-1.314c3.336-.501 7.752 1.261 9.886 3.897l5.565 7.016c2.082 2.644 2.773 7.362 1.546 10.481l-3.31 8.304c-1.252 3.12-4.985 6.092-8.32 6.593zm9.247 79.09c-3.344.492-7.76-1.262-9.877-3.898l-5.634-7.06c-2.1-2.652-2.8-7.379-1.572-10.498l3.318-8.39c1.244-3.137 4.968-6.11 8.312-6.62l8.978-1.313c3.335-.51 7.76 1.262 9.868 3.889l5.599 7.06c2.082 2.643 2.791 7.379 1.555 10.498l-3.326 8.407c-1.245 3.12-4.977 6.11-8.313 6.602zm-63.847 2.781c-3.326.493-7.759-1.261-9.859-3.897l-8.822-11.103c-2.09-2.635-2.782-7.353-1.555-10.481l5.219-13.134c1.253-3.12 4.986-6.083 8.321-6.585l13.955-2.039c3.335-.492 7.76 1.262 9.868 3.897l8.787 11.069c2.091 2.653 2.8 7.38 1.573 10.499l-5.202 13.108c-1.253 3.128-4.977 6.1-8.304 6.593zm-77.309.216c-3.344.493-7.759-1.261-9.876-3.897l-11.337-14.214c-2.1-2.661-2.773-7.379-1.564-10.507l6.68-16.78c1.261-3.128 4.985-6.092 8.32-6.62l17.939-2.686c3.327-.51 7.76 1.261 9.86 3.897l11.25 14.222c2.065 2.67 2.756 7.38 1.546 10.516l-6.662 16.806c-1.253 3.103-4.96 6.1-8.304 6.62zm-92.976-19.606c-3.326.493-7.76-1.261-9.859-3.897l-14.058-17.687c-2.091-2.636-2.783-7.362-1.564-10.482l8.303-20.928c1.262-3.119 4.986-6.091 8.322-6.584l22.224-3.275c3.335-.51 7.75 1.262 9.885 3.897l13.972 17.636c2.091 2.636 2.79 7.362 1.59 10.481l-8.27 20.928c-1.26 3.137-4.976 6.11-8.303 6.602zm-96.931-22.276c-3.327.493-7.742-1.261-9.86-3.897l-16.088-20.34c-2.092-2.653-2.783-7.38-1.547-10.516l9.54-24.073c1.244-3.128 4.985-6.1 8.312-6.61l25.646-3.785c3.335-.51 7.768 1.262 9.867 3.906l16.081 20.271c2.091 2.661 2.782 7.38 1.555 10.507l-9.54 24.169c-1.252 3.119-4.976 6.109-8.32 6.61zm-99.422-1.996c-3.336.493-7.768-1.261-9.868-3.905l-18.413-23.218c-2.092-2.67-2.791-7.38-1.556-10.499l10.87-27.52c1.245-3.129 4.977-6.101 8.313-6.61l29.257-4.338c3.336-.502 7.777 1.261 9.877 3.897l18.457 23.174c2.1 2.67 2.8 7.38 1.564 10.516L323.23 438.22c-1.236 3.12-4.977 6.092-8.313 6.584zm-75.279-42.123c-3.327.51-7.768-1.253-9.859-3.889l-10.369-13.09c-2.091-2.636-2.782-7.38-1.547-10.5l6.135-15.475c1.245-3.154 4.986-6.118 8.313-6.601l16.512-2.42c3.336-.484 7.768 1.27 9.86 3.914l10.308 12.996c2.091 2.653 2.782 7.38 1.547 10.499l-6.135 15.475c-1.245 3.137-4.986 6.11-8.313 6.628zM98.242 335.87c-3.336.492-7.769-1.262-9.868-3.897l-8.036-10.145c-2.091-2.635-2.791-7.362-1.556-10.49l4.736-11.967c1.244-3.128 4.977-6.1 8.312-6.593l12.763-1.884c3.335-.492 7.768 1.262 9.867 3.897l8.045 10.136c2.091 2.635 2.782 7.362 1.538 10.481l-4.77 11.985c-1.244 3.128-4.994 6.092-8.32 6.584zm-63.035.5c-3.327.502-7.768-1.252-9.86-3.888l-4.354-5.495c-2.091-2.636-2.791-7.362-1.547-10.49l2.575-6.472c1.244-3.128 4.986-6.1 8.312-6.602l6.87-1.028c3.327-.501 7.768 1.253 9.86 3.889l4.354 5.495c2.091 2.636 2.791 7.362 1.547 10.49l-2.575 6.472c-1.244 3.128-4.986 6.1-8.313 6.602zm103.05 85.605c-3.335.493-7.768-1.261-9.86-3.897l-12.46-15.726c-2.09-2.653-2.79-7.38-1.546-10.499l7.397-18.716c1.244-3.11 4.977-6.109 8.312-6.61l19.848-2.955c3.335-.492 7.777 1.262 9.868 3.888l12.572 15.796c2.091 2.644 2.791 7.362 1.547 10.481l-7.448 18.733c-1.245 3.12-4.986 6.092-8.322 6.585zm67.122 74.475c-3.336.493-7.768-1.261-9.868-3.897l-15.795-19.882c-2.1-2.636-2.791-7.362-1.556-10.49l9.376-23.641c1.244-3.128 4.985-6.1 8.312-6.593l25.076-3.716c3.335-.51 7.768 1.262 9.867 3.897l15.848 19.952c2.1 2.635 2.79 7.362 1.546 10.481l-9.366 23.607c-1.245 3.093-4.986 6.091-8.321 6.584zm133.733 12.253c-3.335.492-7.768-1.262-9.867-3.897l-11.786-14.854c-2.091-2.635-2.783-7.362-1.538-10.48l6.99-17.568c1.244-3.119 4.994-6.091 8.321-6.584l18.716-2.765c3.335-.493 7.768 1.262 9.868 3.906l11.725 14.784c2.091 2.644 2.791 7.37 1.547 10.49l-7.008 17.644c-1.244 3.128-4.985 6.092-8.312 6.593zm-71.036 46.254c-3.335.501-7.768-1.261-9.867-3.897l-14.266-17.973c-2.091-2.635-2.791-7.362-1.556-10.498l8.425-21.317c1.244-3.12 4.977-6.092 8.313-6.61l22.682-3.37c3.335-.51 7.768 1.261 9.859 3.897l14.274 18.007c2.092 2.661 2.783 7.38 1.539 10.499l-8.46 21.334c-1.244 3.102-4.986 6.083-8.32 6.601zm151.975-17.506c-3.344.501-7.768-1.262-9.894-3.897l-12.555-15.865c-2.091-2.644-2.782-7.37-1.564-10.498l7.414-18.777c1.261-3.119 4.994-6.091 8.338-6.601l19.978-2.99c3.352-.527 7.768 1.262 9.885 3.897l12.572 15.865c2.091 2.67 2.8 7.379 1.573 10.498l-7.405 18.785c-1.245 3.11-4.977 6.11-8.304 6.602zm91.438 26.009c-3.327.5-7.76-1.262-9.885-3.889l-13.497-16.944c-2.074-2.644-2.774-7.37-1.556-10.499l7.95-20.064c1.262-3.136 4.977-6.092 8.321-6.593l21.36-3.128c3.335-.5 7.76 1.262 9.894 3.897l13.47 16.928c2.092 2.635 2.8 7.362 1.565 10.48l-7.95 20.03c-1.261 3.12-4.985 6.092-8.32 6.602zm91.004 9.738c-3.336.501-7.742-1.262-9.86-3.889l-8.813-11.138c-2.091-2.644-2.782-7.37-1.573-10.498l5.22-13.16c1.252-3.102 4.976-6.066 8.32-6.584l14.007-2.057c3.336-.492 7.742 1.262 9.868 3.897l8.822 11.104c2.091 2.635 2.783 7.379 1.573 10.48l-5.22 13.16c-1.26 3.12-4.994 6.093-8.338 6.602zm69.766-10.922c-3.336.501-7.76-1.262-9.86-3.897l-5.72-7.258c-2.09-2.644-2.782-7.371-1.555-10.508l3.396-8.597c1.235-3.128 4.968-6.1 8.303-6.593l9.194-1.365c3.336-.493 7.742 1.261 9.86 3.914l5.72 7.258c2.09 2.653 2.782 7.38 1.546 10.507l-3.387 8.546c-1.235 3.137-4.968 6.11-8.304 6.61zm-139.332 84.68c-3.336.492-7.76-1.262-9.86-3.915l-12.59-15.95c-2.09-2.653-2.782-7.38-1.555-10.516l7.397-18.82c1.262-3.12 4.968-6.092 8.304-6.61l20.133-2.973c3.353-.518 7.75 1.262 9.885 3.889l12.624 15.933c2.091 2.67 2.765 7.38 1.547 10.49l-7.483 18.906c-1.253 3.094-4.986 6.092-8.321 6.585zm78.12-18.483c-3.335.501-7.76-1.262-9.86-3.897l-.932-1.218c-2.083-2.67-2.774-7.38-1.564-10.516l.535-1.4c1.219-3.137 4.926-6.109 8.287-6.636l1.607-.216c3.336-.519 7.76 1.261 9.842 3.914l.942 1.201c2.074 2.653 2.748 7.38 1.52 10.507l-.57 1.443c-1.253 3.12-4.994 6.092-8.33 6.602zM477.59 703.38c-3.334.493-7.741-1.27-9.867-3.914l-9.125-11.492c-2.082-2.644-2.782-7.371-1.555-10.499l5.418-13.67c1.253-3.128 4.96-6.1 8.321-6.61l14.534-2.143c3.335-.527 7.76 1.262 9.876 3.88l9.177 11.561c2.074 2.644 2.765 7.362 1.538 10.482l-5.453 13.704c-1.261 3.12-4.994 6.074-8.33 6.575zm-38.096-75.002c-3.327.51-7.751-1.262-9.877-3.914l-15.64-19.796c-2.09-2.653-2.782-7.38-1.564-10.499l9.315-23.486c1.262-3.128 4.969-6.1 8.304-6.601l24.963-3.707c3.344-.519 7.742 1.261 9.868 3.897l15.657 19.83c2.091 2.645 2.783 7.371 1.573 10.5l-9.211 23.468c-1.253 3.127-4.977 6.1-8.304 6.592zm-88.197-37.389c-3.335.51-7.768-1.261-9.868-3.88l-11.777-14.836c-2.091-2.635-2.791-7.379-1.564-10.498l6.964-17.653c1.236-3.12 4.969-6.092 8.304-6.602l18.725-2.73c3.335-.51 7.768 1.261 9.868 3.914l11.768 14.836c2.091 2.653 2.783 7.38 1.556 10.507l-6.939 17.558c-1.236 3.137-4.977 6.11-8.304 6.61zm-79.591 43.852c-3.336.493-7.768-1.261-9.868-3.897l-13.48-16.996c-2.09-2.644-2.79-7.362-1.547-10.481l8.002-20.15c1.244-3.12 4.986-6.093 8.32-6.594l21.447-3.188c3.336-.501 7.768 1.261 9.86 3.897l13.427 16.996c2.091 2.644 2.783 7.37 1.547 10.507l-7.967 20.168c-1.235 3.128-4.977 6.092-8.304 6.602zm94.782 33.207c-3.336.501-7.769-1.262-9.868-3.897l-10.3-12.979c-2.091-2.635-2.791-7.362-1.547-10.48l6.127-15.425c1.244-3.128 4.985-6.091 8.32-6.584l16.349-2.41c3.335-.493 7.76 1.26 9.876 3.896l10.292 12.979c2.09 2.635 2.79 7.362 1.572 10.49l-6.057 15.415c-1.244 3.136-4.951 6.092-8.304 6.593zm52.267 48.216c-3.344.51-7.76-1.262-9.877-3.88l-5.08-6.394c-2.092-2.636-2.8-7.362-1.599-10.499l3.016-7.63c1.244-3.136 4.942-6.109 8.303-6.601l8.105-1.245c3.353-.518 7.751 1.262 9.886 3.906l5.098 6.412c2.09 2.67 2.782 7.379 1.546 10.524l-3.015 7.595c-1.262 3.111-4.995 6.1-8.321 6.628zm-58.732.907c-3.326.518-7.768-1.244-9.859-3.871l-.881-1.115c-2.091-2.644-2.791-7.37-1.547-10.498l.527-1.297c1.244-3.11 4.986-6.109 8.313-6.618l1.443-.216c3.326-.502 7.759 1.261 9.85 3.897l.855 1.08c2.083 2.652 2.774 7.379 1.53 10.498l-.527 1.33c-1.244 3.12-4.986 6.101-8.313 6.62zm-68.366-6.031c-3.327.492-7.76-1.262-9.85-3.897l-11.786-14.914c-2.091-2.645-2.783-7.371-1.547-10.499l6.947-17.567c1.244-3.128 4.977-6.1 8.313-6.601l18.724-2.783c3.336-.5 7.768 1.262 9.868 3.889l11.777 14.853c2.091 2.636 2.791 7.362 1.556 10.499l-6.956 17.618c-1.236 3.128-4.977 6.1-8.304 6.602zm-92.353-39.817c-3.326.51-7.76-1.253-9.85-3.889l-9.574-12.105c-2.091-2.653-2.783-7.38-1.547-10.508l5.643-14.266c1.235-3.11 4.977-6.091 8.303-6.592l15.26-2.247c3.335-.501 7.768 1.27 9.868 3.906l9.565 12.053c2.091 2.636 2.791 7.362 1.556 10.5l-5.652 14.282c-1.235 3.128-4.977 6.1-8.303 6.61zm-11.838-92.44c-3.335.502-7.768-1.261-9.867-3.888l-12.668-15.934c-2.1-2.635-2.79-7.361-1.555-10.49l7.5-18.897c1.244-3.12 4.986-6.092 8.313-6.61l20.072-2.998c3.335-.493 7.768 1.261 9.86 3.914l12.589 15.916c2.091 2.653 2.79 7.388 1.555 10.507l-7.465 18.898c-1.236 3.11-4.977 6.109-8.304 6.601zm-49.32 36.784c-3.336.493-7.768-1.261-9.86-3.897l-7.802-9.85c-2.091-2.644-2.782-7.37-1.547-10.499l4.614-11.639c1.245-3.12 4.986-6.092 8.313-6.567l12.365-1.806c3.335-.51 7.768 1.253 9.868 3.897l7.75 9.79c2.092 2.653 2.8 7.38 1.564 10.499l-4.58 11.648c-1.235 3.136-4.968 6.109-8.294 6.601zM81.35 580.88c-3.336.492-7.76-1.27-9.85-3.932l-4.313-5.47c-2.09-2.67-2.773-7.379-1.538-10.498l2.567-6.48c1.244-3.12 4.985-6.093 8.312-6.611l6.878-1.028c3.336-.519 7.768 1.261 9.85 3.914l4.313 5.452c2.082 2.679 2.79 7.38 1.555 10.542l-2.55 6.515c-1.235 3.11-4.959 6.092-8.294 6.585zm44.896-69.637c-3.335.501-7.768-1.261-9.859-3.888l-12.244-15.51c-2.09-2.644-2.782-7.38-1.547-10.499l7.285-18.37c1.235-3.128 4.977-6.092 8.312-6.593l19.511-2.86c3.335-.501 7.768 1.27 9.868 3.905l12.278 15.459c2.1 2.635 2.791 7.362 1.556 10.481l-7.276 18.362c-1.244 3.136-4.986 6.109-8.312 6.61zm-50.678-88.43c-3.335.502-7.768-1.261-9.868-3.897l-6.498-8.191c-2.09-2.644-2.79-7.37-1.546-10.507l3.87-9.756c1.245-3.12 4.987-6.092 8.313-6.584l10.386-1.538c3.336-.51 7.769 1.261 9.851 3.923l6.472 8.157c2.082 2.678 2.782 7.388 1.547 10.533l-3.828 9.686c-1.236 3.102-4.977 6.092-8.304 6.602zm-52.258 7.552c-3.336.519-7.769-1.261-9.86-3.897l-3.741-4.743c-2.091-2.644-2.782-7.362-1.538-10.482l2.212-5.582c1.244-3.128 4.994-6.1 8.321-6.61l5.98-.898c3.326-.519 7.759 1.261 9.85 3.888l3.741 4.744c2.091 2.67 2.791 7.379 1.556 10.498l-2.204 5.582c-1.235 3.12-4.968 6.092-8.303 6.61zm35.314 74.977c-3.335.51-7.776-1.253-9.867-3.88l-6.274-7.88c-2.09-2.636-2.79-7.362-1.538-10.482l3.742-9.366c1.253-3.12 4.994-6.092 8.32-6.602l9.886-1.469c3.327-.527 7.768 1.262 9.86 3.88l6.281 7.932c2.091 2.636 2.791 7.345 1.547 10.481l-3.707 9.315c-1.244 3.11-4.986 6.092-8.321 6.602z"></path></svg></svg>